<?xml version="1.0" encoding="UTF-8" standalone="no"?>
<!DOCTYPE svg PUBLIC "-//W3C//DTD SVG 1.1//EN" "http://www.w3.org/Graphics/SVG/1.1/DTD/svg11.dtd">
<svg version="1.1" xmlns="http://www.w3.org/2000/svg" xmlns:xlink="http://www.w3.org/1999/xlink" preserveAspectRatio="xMidYMid meet" viewBox="0 0 24 24" width="24" height="24"><defs><path d="M15.87 3.28L16.73 3.6L17.53 4.05L18.25 4.59L18.9 5.24L19.44 5.96L19.89 6.76L20.21 7.62L20.42 8.54L20.49 9.5L20.42 10.46L20.21 11.38L19.89 12.24L19.44 13.04L18.9 13.76L18.25 14.41L17.53 14.95L16.73 15.4L15.87 15.72L14.95 15.93L13.99 16L13.55 15.99L13.13 15.94L12.71 15.87L12.3 15.78L11.89 15.65L11.51 15.51L11.13 15.33L10.76 15.14L10.41 14.92L10.08 14.69L9.76 14.43L9.49 14.71L9.49 15.5L4.49 20.49L3 19L7.99 14L8.78 14L9.06 13.73L8.8 13.41L8.57 13.08L8.35 12.73L8.16 12.36L7.98 11.98L7.84 11.6L7.71 11.19L7.62 10.78L7.55 10.36L7.5 9.94L7.49 9.5L7.56 8.54L7.77 7.62L8.09 6.76L8.54 5.96L9.08 5.24L9.73 4.59L10.45 4.05L11.25 3.6L12.11 3.28L13.03 3.07L13.99 3L14.95 3.07L15.87 3.28ZM11.33 5.87L10.36 6.84L9.72 8.08L9.49 9.5L9.72 10.92L10.36 12.16L11.33 13.13L12.57 13.77L13.99 14L15.41 13.77L16.65 13.13L17.62 12.16L18.26 10.92L18.49 9.5L18.26 8.08L17.62 6.84L16.65 5.87L15.41 5.23L13.99 5L12.57 5.23L11.33 5.87Z" id="b1QhGfVffT"></path><path d="M0 0L24 0L24 24L0 24L0 0Z" id="be8n57PsA"></path></defs><g><g><g><use xlink:href="#b1QhGfVffT" opacity="1" fill="#ffffff" fill-opacity="1"></use><g><use xlink:href="#b1QhGfVffT" opacity="1" fill-opacity="0" stroke="#000000" stroke-width="1" stroke-opacity="0"></use></g></g><g><use xlink:href="#be8n57PsA" opacity="1" fill="#000000" fill-opacity="0"></use><g><use xlink:href="#be8n57PsA" opacity="1" fill-opacity="0" stroke="#000000" stroke-width="1" stroke-opacity="0"></use></g></g></g></g></svg>